<?xml version="1.0" standalone="no"?>
<!DOCTYPE svg PUBLIC "-//W3C//DTD SVG 20010904//EN"
 "http://www.w3.org/TR/2001/REC-SVG-20010904/DTD/svg10.dtd">
<svg version="1.0" xmlns="http://www.w3.org/2000/svg"
 width="555.000000pt" height="555.000000pt" viewBox="0 0 555.000000 555.000000"
 preserveAspectRatio="xMidYMid meet">
<metadata>
Created by potrace 1.14, written by Peter Selinger 2001-2017
</metadata>
<g transform="translate(0.000000,555.000000) scale(0.100000,-0.100000)"
fill="#000000" stroke="none">
<path d="M982 5529 c-226 -19 -389 -70 -539 -168 -170 -112 -303 -285 -369
-478 -71 -211 -68 -117 -72 -2003 -3 -1760 -1 -1904 38 -2081 73 -335 303
-598 617 -705 213 -72 121 -69 2118 -69 1675 0 1797 1 1905 18 245 38 413 120
570 277 157 158 239 325 277 570 17 108 18 230 18 1890 0 1660 -1 1782 -18
1890 -38 245 -120 413 -277 570 -113 113 -215 178 -357 226 -212 71 -109 68
-2058 70 -962 1 -1796 -2 -1853 -7z m1783 -2014 c358 -663 653 -1205 658
-1205 4 0 6 541 5 1203 l-3 1202 438 3 437 2 0 -1940 0 -1940 -437 0 -438 0
-650 1138 -650 1137 -3 -1137 -2 -1138 -440 0 -440 0 0 1940 0 1940 438 0 438
0 649 -1205z"/>
</g>
</svg>
