<?xml version="1.0" encoding="UTF-8"?>
<svg width="45px" height="55px" viewBox="0 0 45 55" version="1.1" xmlns="http://www.w3.org/2000/svg" xmlns:xlink="http://www.w3.org/1999/xlink">
    <!-- Generator: Sketch 60.1 (88133) - https://sketch.com -->
    <title>trash</title>
    <desc>Created with Sketch.</desc>
    <g id="Page-1" stroke="none" stroke-width="1" fill="none" fill-rule="evenodd">
        <g id="Artboard" transform="translate(-327.000000, -250.000000)" fill="#0A84FF" fill-rule="nonzero">
            <g id="trash" transform="translate(327.000000, 250.000000)">
                <path d="M40.6730769,6.73684211 L31.1538462,6.73684211 L31.1538462,5.05263158 C31.1538462,2.26210526 28.8292067,0 25.9615385,0 L19.0384615,0 C16.1707933,0 13.8461538,2.26210526 13.8461538,5.05263158 L13.8461538,6.73684211 L4.32692308,6.73684211 C1.93727163,6.73684211 0,8.622 0,10.9473684 L0,14.3157895 C0,15.246 0.77484375,16 1.73076923,16 L43.2692308,16 C44.2251563,16 45,15.246 45,14.3157895 L45,10.9473684 C45,8.622 43.0627284,6.73684211 40.6730769,6.73684211 Z M17.3076923,5.05263158 C17.3076923,4.12421053 18.084375,3.36842105 19.0384615,3.36842105 L25.9615385,3.36842105 C26.915625,3.36842105 27.6923077,4.12421053 27.6923077,5.05263158 L27.6923077,6.73684211 L17.3076923,6.73684211 L17.3076923,5.05263158 Z" id="Shape"></path>
                <path d="M2.54751538,20 C2.23487131,20 1.98574161,20.2546037 2.00063464,20.5589329 L3.44613441,50.1213415 C3.57973363,52.8573171 5.8859628,55 8.69592675,55 L35.3040733,55 C38.1140372,55 40.4202664,52.8573171 40.5538656,50.1213415 L41.9993654,20.5589329 C42.0142584,20.2546037 41.7651287,20 41.4524846,20 L2.54751538,20 Z M29.0084837,24.2682927 C29.0084837,23.325 29.7925578,22.5609756 30.7606047,22.5609756 C31.7286515,22.5609756 32.5127256,23.325 32.5127256,24.2682927 L32.5127256,46.4634146 C32.5127256,47.4067073 31.7286515,48.1707317 30.7606047,48.1707317 C29.7925578,48.1707317 29.0084837,47.4067073 29.0084837,46.4634146 L29.0084837,24.2682927 Z M20.2478791,24.2682927 C20.2478791,23.325 21.0319532,22.5609756 22,22.5609756 C22.9680468,22.5609756 23.7521209,23.325 23.7521209,24.2682927 L23.7521209,46.4634146 C23.7521209,47.4067073 22.9680468,48.1707317 22,48.1707317 C21.0319532,48.1707317 20.2478791,47.4067073 20.2478791,46.4634146 L20.2478791,24.2682927 Z M11.4872744,24.2682927 C11.4872744,23.325 12.2713485,22.5609756 13.2393953,22.5609756 C14.2074422,22.5609756 14.9915163,23.325 14.9915163,24.2682927 L14.9915163,46.4634146 C14.9915163,47.4067073 14.2074422,48.1707317 13.2393953,48.1707317 C12.2713485,48.1707317 11.4872744,47.4067073 11.4872744,46.4634146 L11.4872744,24.2682927 Z" id="Shape"></path>
            </g>
        </g>
    </g>
</svg>